<mxfile host="65bd71144e">
    <diagram id="BleGX_yLESVcZQEp3x3D" name="第 1 页">
        <mxGraphModel dx="1334" dy="994" grid="1" gridSize="10" guides="1" tooltips="1" connect="1" arrows="1" fold="1" page="1" pageScale="1" pageWidth="827" pageHeight="1169" math="0" shadow="0">
            <root>
                <mxCell id="0"/>
                <mxCell id="1" parent="0"/>
                <mxCell id="3" value="&lt;h1&gt;内容生成流程&lt;/h1&gt;" style="text;html=1;strokeColor=none;fillColor=none;spacing=5;spacingTop=-20;whiteSpace=wrap;overflow=hidden;rounded=0;" vertex="1" parent="1">
                    <mxGeometry x="540" y="230" width="180" height="30" as="geometry"/>
                </mxCell>
                <mxCell id="21" value="" style="group" vertex="1" connectable="0" parent="1">
                    <mxGeometry x="104" y="290" width="310" height="280" as="geometry"/>
                </mxCell>
                <mxCell id="20" value="" style="rounded=0;whiteSpace=wrap;html=1;" vertex="1" parent="21">
                    <mxGeometry y="60" width="310" height="220" as="geometry"/>
                </mxCell>
                <mxCell id="2" value="Tiktok" style="rounded=0;whiteSpace=wrap;html=1;" vertex="1" parent="21">
                    <mxGeometry x="20" y="100" width="120" height="60" as="geometry"/>
                </mxCell>
                <mxCell id="4" value="小红书" style="rounded=0;whiteSpace=wrap;html=1;" vertex="1" parent="21">
                    <mxGeometry x="170" y="100" width="120" height="60" as="geometry"/>
                </mxCell>
                <mxCell id="5" value="reddit" style="rounded=0;whiteSpace=wrap;html=1;" vertex="1" parent="21">
                    <mxGeometry x="20" y="190" width="120" height="60" as="geometry"/>
                </mxCell>
                <mxCell id="18" value="信息源" style="text;html=1;strokeColor=none;fillColor=none;align=center;verticalAlign=middle;whiteSpace=wrap;rounded=0;" vertex="1" parent="21">
                    <mxGeometry x="102.5" width="77.5" height="60" as="geometry"/>
                </mxCell>
                <mxCell id="22" value="视频地址拾取" style="shape=process;whiteSpace=wrap;html=1;backgroundOutline=1;" vertex="1" parent="1">
                    <mxGeometry x="520" y="420" width="120" height="60" as="geometry"/>
                </mxCell>
                <mxCell id="23" value="" style="shape=flexArrow;endArrow=classic;html=1;entryX=0;entryY=0.5;entryDx=0;entryDy=0;" edge="1" parent="1" target="22">
                    <mxGeometry width="50" height="50" relative="1" as="geometry">
                        <mxPoint x="414" y="450" as="sourcePoint"/>
                        <mxPoint x="464" y="400" as="targetPoint"/>
                    </mxGeometry>
                </mxCell>
                <UserObject label="视频去水印" link="https://dlpanda.com/" linkTarget="_blank" id="24">
                    <mxCell style="shape=process;whiteSpace=wrap;html=1;backgroundOutline=1;" vertex="1" parent="1">
                        <mxGeometry x="730" y="420" width="120" height="60" as="geometry"/>
                    </mxCell>
                </UserObject>
                <mxCell id="25" value="" style="shape=flexArrow;endArrow=classic;html=1;entryX=0;entryY=0.5;entryDx=0;entryDy=0;" edge="1" parent="1" target="24">
                    <mxGeometry width="50" height="50" relative="1" as="geometry">
                        <mxPoint x="640" y="449.44" as="sourcePoint"/>
                        <mxPoint x="746" y="449.44" as="targetPoint"/>
                    </mxGeometry>
                </mxCell>
                <mxCell id="27" value="素材库" style="whiteSpace=wrap;html=1;aspect=fixed;" vertex="1" parent="1">
                    <mxGeometry x="970" y="335" width="230" height="230" as="geometry"/>
                </mxCell>
                <mxCell id="28" value="" style="shape=flexArrow;endArrow=classic;html=1;" edge="1" parent="1" target="27">
                    <mxGeometry width="50" height="50" relative="1" as="geometry">
                        <mxPoint x="850" y="449.2300000000001" as="sourcePoint"/>
                        <mxPoint x="940" y="449.79" as="targetPoint"/>
                    </mxGeometry>
                </mxCell>
                <mxCell id="30" value="" style="shape=flexArrow;endArrow=classic;html=1;" edge="1" parent="1">
                    <mxGeometry width="50" height="50" relative="1" as="geometry">
                        <mxPoint x="1010" y="565" as="sourcePoint"/>
                        <mxPoint x="1010" y="785" as="targetPoint"/>
                    </mxGeometry>
                </mxCell>
                <mxCell id="31" value="" style="shape=flexArrow;endArrow=classic;html=1;" edge="1" parent="1">
                    <mxGeometry width="50" height="50" relative="1" as="geometry">
                        <mxPoint x="1140" y="565" as="sourcePoint"/>
                        <mxPoint x="1140" y="790" as="targetPoint"/>
                    </mxGeometry>
                </mxCell>
                <mxCell id="32" value="&lt;font style=&quot;font-size: 30px;&quot;&gt;成品库&lt;/font&gt;" style="rounded=0;whiteSpace=wrap;html=1;" vertex="1" parent="1">
                    <mxGeometry x="960" y="790" width="240" height="180" as="geometry"/>
                </mxCell>
                <mxCell id="33" value="&lt;font style=&quot;font-size: 33px;&quot;&gt;剪辑&lt;/font&gt;" style="text;html=1;strokeColor=none;fillColor=none;align=center;verticalAlign=middle;whiteSpace=wrap;rounded=0;" vertex="1" parent="1">
                    <mxGeometry x="1020" y="660" width="100" height="30" as="geometry"/>
                </mxCell>
                <mxCell id="34" value="" style="rounded=0;whiteSpace=wrap;html=1;fontSize=30;" vertex="1" parent="1">
                    <mxGeometry x="104" y="740" width="316" height="230" as="geometry"/>
                </mxCell>
                <mxCell id="35" value="douyin" style="rounded=0;whiteSpace=wrap;html=1;fontSize=30;" vertex="1" parent="1">
                    <mxGeometry x="120" y="750" width="120" height="60" as="geometry"/>
                </mxCell>
                <mxCell id="37" value="xiaohongshu" style="rounded=0;whiteSpace=wrap;html=1;fontSize=30;" vertex="1" parent="1">
                    <mxGeometry x="120" y="810" width="200" height="150" as="geometry"/>
                </mxCell>
            </root>
        </mxGraphModel>
    </diagram>
</mxfile>